<svg xmlns="http://www.w3.org/2000/svg" xmlns:xlink="http://www.w3.org/1999/xlink" viewBox="0 0 460.22 88.17" xml:space="preserve">
<style type="text/css">
	.st0{fill:#63666A;}
	.st1{fill:#BA0C2F;}
</style>
<g>
	<g>
		<g>
			<path class="st0" d="M116.03,22.01h8.39c2.14,0,3.82,0.59,4.89,1.66c0.83,0.83,1.26,1.87,1.26,3.1v0.05
				c0,2.25-1.28,3.45-2.67,4.17c2.19,0.75,3.72,2,3.72,4.54v0.05c0,3.34-2.75,5.13-6.92,5.13h-8.66V22.01z M127.28,27.3
				c0-1.47-1.18-2.38-3.29-2.38h-4.73v4.97h4.49c2.11,0,3.53-0.83,3.53-2.54V27.3z M124.48,32.68h-5.21v5.13h5.45
				c2.22,0,3.61-0.88,3.61-2.57v-0.05C128.33,33.61,127.07,32.68,124.48,32.68z"/>
			<path class="st0" d="M134.57,32.79V22.01h3.29v10.64c0,3.48,1.79,5.32,4.73,5.32c2.91,0,4.71-1.74,4.71-5.19V22.01h3.29v10.61
				c0,5.59-3.15,8.39-8.05,8.39C137.67,41.02,134.57,38.21,134.57,32.79z"/>
			<path class="st0" d="M154.8,22.01h8.34c2.35,0,4.2,0.7,5.4,1.87c0.99,1.02,1.55,2.41,1.55,4.04v0.05c0,3.07-1.84,4.92-4.44,5.67
				l5.05,7.08h-3.9l-4.6-6.52h-4.12v6.52h-3.29V22.01z M162.9,31.29c2.35,0,3.85-1.23,3.85-3.13v-0.05c0-2-1.44-3.1-3.88-3.1h-4.79
				v6.28H162.9z"/>
			<path class="st0" d="M173.66,22.01h13.87v2.94h-10.59v4.87h9.38v2.97h-9.38v5h10.72v2.94h-14.01V22.01z"/>
			<path class="st0" d="M197.95,21.88H201l8.23,18.85h-3.48l-1.9-4.52h-8.85l-1.92,4.52h-3.37L197.95,21.88z M202.66,33.29
				l-3.24-7.49l-3.21,7.49H202.66z"/>
			<path class="st0" d="M210.55,32.79V22.01h3.29v10.64c0,3.48,1.79,5.32,4.73,5.32c2.91,0,4.71-1.74,4.71-5.19V22.01h3.29v10.61
				c0,5.59-3.15,8.39-8.05,8.39C213.66,41.02,210.55,38.21,210.55,32.79z"/>
			<path class="st0" d="M237.21,31.42v-0.05c0-5.27,4.06-9.68,9.81-9.68c5.75,0,9.76,4.36,9.76,9.62v0.05
				c0,5.27-4.06,9.68-9.81,9.68C241.22,41.05,237.21,36.69,237.21,31.42z M253.33,31.42v-0.05c0-3.64-2.65-6.63-6.36-6.63
				s-6.31,2.94-6.31,6.58v0.05c0,3.64,2.65,6.63,6.36,6.63C250.74,38,253.33,35.06,253.33,31.42z"/>
			<path class="st0" d="M260.26,22.01h13.93v2.99h-10.64v5.11h9.44v2.99h-9.44v7.62h-3.29V22.01z"/>
			<path class="st0" d="M284.75,22.01h8.39c2.14,0,3.82,0.59,4.89,1.66c0.83,0.83,1.26,1.87,1.26,3.1v0.05
				c0,2.25-1.28,3.45-2.67,4.17c2.19,0.75,3.72,2,3.72,4.54v0.05c0,3.34-2.75,5.13-6.92,5.13h-8.66V22.01z M296.01,27.3
				c0-1.47-1.18-2.38-3.29-2.38h-4.73v4.97h4.49c2.11,0,3.53-0.83,3.53-2.54V27.3z M293.2,32.68h-5.21v5.13h5.45
				c2.22,0,3.61-0.88,3.61-2.57v-0.05C297.05,33.61,295.79,32.68,293.2,32.68z"/>
			<path class="st0" d="M303.3,32.79V22.01h3.29v10.64c0,3.48,1.79,5.32,4.73,5.32c2.91,0,4.71-1.74,4.71-5.19V22.01h3.29v10.61
				c0,5.59-3.16,8.39-8.05,8.39C306.4,41.02,303.3,38.21,303.3,32.79z"/>
			<path class="st0" d="M321.98,38l1.98-2.35c1.79,1.55,3.61,2.43,5.91,2.43c2.03,0,3.31-0.96,3.31-2.35v-0.05
				c0-1.34-0.75-2.06-4.22-2.86c-3.98-0.96-6.23-2.14-6.23-5.59v-0.05c0-3.21,2.67-5.43,6.39-5.43c2.73,0,4.89,0.83,6.79,2.35
				l-1.76,2.49c-1.68-1.26-3.37-1.92-5.08-1.92c-1.92,0-3.05,0.99-3.05,2.22v0.05c0,1.44,0.86,2.08,4.46,2.94
				c3.96,0.96,5.99,2.38,5.99,5.48v0.05c0,3.5-2.75,5.59-6.68,5.59C326.92,40.99,324.22,40,321.98,38z"/>
			<path class="st0" d="M339.96,22.01h3.29v18.71h-3.29V22.01z"/>
			<path class="st0" d="M347.72,22.01h3.05l10.02,12.94V22.01h3.24v18.71h-2.75l-10.32-13.31v13.31h-3.23V22.01z"/>
			<path class="st0" d="M368.45,22.01h13.88v2.94h-10.59v4.87h9.38v2.97h-9.38v5h10.72v2.94h-14.01V22.01z"/>
			<path class="st0" d="M384.67,38l1.98-2.35c1.79,1.55,3.61,2.43,5.91,2.43c2.03,0,3.31-0.96,3.31-2.35v-0.05
				c0-1.34-0.75-2.06-4.22-2.86c-3.98-0.96-6.23-2.14-6.23-5.59v-0.05c0-3.21,2.67-5.43,6.39-5.43c2.73,0,4.89,0.83,6.79,2.35
				l-1.76,2.49c-1.68-1.26-3.37-1.92-5.08-1.92c-1.92,0-3.05,0.99-3.05,2.22v0.05c0,1.44,0.86,2.08,4.46,2.94
				c3.96,0.96,5.99,2.38,5.99,5.48v0.05c0,3.5-2.75,5.59-6.68,5.59C389.62,40.99,386.92,40,384.67,38z"/>
			<path class="st0" d="M401.16,38l1.98-2.35c1.79,1.55,3.61,2.43,5.91,2.43c2.03,0,3.32-0.96,3.32-2.35v-0.05
				c0-1.34-0.75-2.06-4.22-2.86c-3.98-0.96-6.23-2.14-6.23-5.59v-0.05c0-3.21,2.67-5.43,6.39-5.43c2.73,0,4.89,0.83,6.79,2.35
				l-1.76,2.49c-1.68-1.26-3.37-1.92-5.08-1.92c-1.92,0-3.05,0.99-3.05,2.22v0.05c0,1.44,0.86,2.08,4.46,2.94
				c3.96,0.96,5.99,2.38,5.99,5.48v0.05c0,3.5-2.75,5.59-6.68,5.59C406.1,40.99,403.4,40,401.16,38z"/>
			<path class="st0" d="M126.51,63.6c-1.6,1.5-3.48,2.43-5.72,2.43c-3.5,0-6.15-2.11-6.15-5.35v-0.05c0-2.41,1.44-4.14,4.01-5.21
				c-1.07-1.39-1.55-2.54-1.55-3.9v-0.05c0-2.54,2.03-4.73,5.37-4.73c2.97,0,4.97,2,4.97,4.52v0.05c0,2.46-1.63,3.93-4.12,4.87
				l3.21,3.26c0.7-1.07,1.39-2.3,2-3.61l2.49,1.31c-0.75,1.5-1.58,2.97-2.54,4.25l2.97,2.99l-2.46,1.76L126.51,63.6z M124.64,61.67
				l-4.17-4.25c-1.74,0.75-2.49,1.9-2.49,3.1v0.05c0,1.58,1.31,2.73,3.13,2.73C122.39,63.3,123.57,62.69,124.64,61.67z
				 M124.53,51.49v-0.05c0-1.26-0.88-2.11-2.11-2.11c-1.34,0-2.25,0.96-2.25,2.25v0.05c0,0.94,0.37,1.63,1.42,2.78
				C123.51,53.7,124.53,52.82,124.53,51.49z"/>
			<path class="st0" d="M141.59,47.05h13.87v2.94h-10.59v4.87h9.38v2.97h-9.38v5h10.72v2.94h-14.01V47.05z"/>
			<path class="st0" d="M157.77,56.46V56.4c0-5.32,3.98-9.68,9.62-9.68c3.48,0,5.56,1.2,7.35,2.91l-2.11,2.43
				c-1.52-1.39-3.1-2.3-5.27-2.3c-3.53,0-6.15,2.91-6.15,6.58v0.05c0,3.66,2.59,6.63,6.18,6.63c2.3,0,3.77-0.91,5.37-2.41l2.11,2.14
				c-1.95,2.03-4.09,3.32-7.59,3.32C161.81,66.08,157.77,61.83,157.77,56.46z"/>
			<path class="st0" d="M176.27,56.46V56.4c0-5.27,4.06-9.68,9.81-9.68s9.76,4.36,9.76,9.62v0.05c0,5.27-4.06,9.68-9.81,9.68
				C180.28,66.08,176.27,61.72,176.27,56.46z M192.39,56.46V56.4c0-3.64-2.65-6.63-6.36-6.63s-6.31,2.94-6.31,6.58v0.05
				c0,3.64,2.65,6.63,6.36,6.63S192.39,60.09,192.39,56.46z"/>
			<path class="st0" d="M199.32,47.05h3.05l10.03,12.94V47.05h3.23v18.71h-2.75l-10.32-13.31v13.31h-3.23V47.05z"/>
			<path class="st0" d="M219.1,56.46V56.4c0-5.27,4.06-9.68,9.81-9.68s9.76,4.36,9.76,9.62v0.05c0,5.27-4.06,9.68-9.81,9.68
				C223.11,66.08,219.1,61.72,219.1,56.46z M235.22,56.46V56.4c0-3.64-2.65-6.63-6.36-6.63s-6.31,2.94-6.31,6.58v0.05
				c0,3.64,2.65,6.63,6.36,6.63S235.22,60.09,235.22,56.46z"/>
			<path class="st0" d="M242.16,47.05h3.5l5.69,8.85l5.69-8.85h3.5v18.71h-3.29V52.34l-5.91,8.82h-0.11l-5.86-8.77v13.37h-3.23
				V47.05z"/>
			<path class="st0" d="M265.07,47.05h3.29v18.71h-3.29V47.05z"/>
			<path class="st0" d="M271.92,56.46V56.4c0-5.32,3.98-9.68,9.62-9.68c3.48,0,5.56,1.2,7.35,2.91l-2.11,2.43
				c-1.52-1.39-3.1-2.3-5.27-2.3c-3.53,0-6.15,2.91-6.15,6.58v0.05c0,3.66,2.59,6.63,6.18,6.63c2.3,0,3.77-0.91,5.37-2.41l2.11,2.14
				c-1.95,2.03-4.09,3.32-7.59,3.32C275.96,66.08,271.92,61.83,271.92,56.46z"/>
			<path class="st0" d="M299.46,47.05h8.34c2.35,0,4.2,0.7,5.4,1.87c0.99,1.02,1.55,2.41,1.55,4.04v0.05c0,3.08-1.84,4.92-4.44,5.67
				l5.05,7.08h-3.9l-4.6-6.52h-4.12v6.52h-3.29V47.05z M307.56,56.32c2.35,0,3.85-1.23,3.85-3.13v-0.05c0-2-1.44-3.1-3.88-3.1h-4.79
				v6.28H307.56z"/>
			<path class="st0" d="M318.32,47.05h13.87v2.94h-10.59v4.87h9.38v2.97h-9.38v5h10.72v2.94h-14.01V47.05z"/>
			<path class="st0" d="M334.55,63.03l1.98-2.35c1.79,1.55,3.61,2.43,5.91,2.43c2.03,0,3.31-0.96,3.31-2.35v-0.05
				c0-1.34-0.75-2.06-4.22-2.86c-3.98-0.96-6.23-2.14-6.23-5.59v-0.05c0-3.21,2.67-5.43,6.39-5.43c2.73,0,4.89,0.83,6.79,2.35
				l-1.76,2.49c-1.68-1.26-3.37-1.92-5.08-1.92c-1.92,0-3.05,0.99-3.05,2.22v0.05c0,1.44,0.86,2.08,4.46,2.94
				c3.96,0.96,5.99,2.38,5.99,5.48v0.05c0,3.5-2.75,5.59-6.68,5.59C339.49,66.03,336.79,65.04,334.55,63.03z"/>
			<path class="st0" d="M352.4,47.05h13.88v2.94h-10.59v4.87h9.38v2.97h-9.38v5h10.72v2.94H352.4V47.05z"/>
			<path class="st0" d="M376.69,46.91h3.05l8.23,18.85h-3.47l-1.9-4.52h-8.85l-1.92,4.52h-3.37L376.69,46.91z M381.39,58.33
				l-3.23-7.49l-3.21,7.49H381.39z"/>
			<path class="st0" d="M390.47,47.05h8.34c2.35,0,4.2,0.7,5.4,1.87c0.99,1.02,1.55,2.41,1.55,4.04v0.05c0,3.08-1.84,4.92-4.44,5.67
				l5.05,7.08h-3.9l-4.6-6.52h-4.12v6.52h-3.29V47.05z M398.57,56.32c2.35,0,3.85-1.23,3.85-3.13v-0.05c0-2-1.44-3.1-3.88-3.1h-4.79
				v6.28H398.57z"/>
			<path class="st0" d="M408.13,56.46V56.4c0-5.32,3.98-9.68,9.62-9.68c3.48,0,5.56,1.2,7.35,2.91L423,52.07
				c-1.52-1.39-3.1-2.3-5.27-2.3c-3.53,0-6.15,2.91-6.15,6.58v0.05c0,3.66,2.59,6.63,6.17,6.63c2.3,0,3.77-0.91,5.37-2.41l2.11,2.14
				c-1.95,2.03-4.09,3.32-7.59,3.32C412.17,66.08,408.13,61.83,408.13,56.46z"/>
			<path class="st0" d="M428.02,47.05h3.29v7.78h8.93v-7.78h3.29v18.71h-3.29v-7.89h-8.93v7.89h-3.29V47.05z"/>
		</g>
	</g>
	<path id="Logo" class="st1" d="M37.17,22.03h-3.76V16.7h15.83v5.34h-3.76c-0.28,0-0.51,0.23-0.51,0.51v16.01l-7.29-6.52v-9.49
		C37.68,22.26,37.45,22.03,37.17,22.03z M71.33,22.55v10.63l3.64,4.81l3.66-4.83V22.55c0-0.28,0.23-0.51,0.51-0.51h3.76V16.7H67.06
		v5.34h3.76C71.1,22.03,71.33,22.26,71.33,22.55z M95.83,31.81h3.76v-5.34H86.1l-11.13,14.7l-11.13-14.7H50.34v5.34h3.76
		c0.28,0,0.51,0.23,0.51,0.51v17.44L28.56,26.47H16.7v5.34h3.75c0.28,0,0.51,0.23,0.51,0.51v21.1c0,0.28-0.23,0.51-0.51,0.51H16.7
		v5.34h15.6v-5.34h-3.53c-0.28,0-0.51-0.23-0.51-0.51V35.98L54.3,59.26h7.6V36l13.06,17.25L88.03,36v17.41
		c0,0.28-0.23,0.51-0.51,0.51h-3.53v5.34h15.61v-5.34h-3.76c-0.28,0-0.51-0.23-0.51-0.51v-21.1C95.32,32.04,95.55,31.81,95.83,31.81
		z M71.32,51.63v9.01c0,0.2-0.08,0.39-0.22,0.54c-1.56,1.58-6.23,4.58-12.94,4.58c-6.72,0-11.38-3.01-12.94-4.58
		c-0.14-0.14-0.22-0.34-0.22-0.54v-7.12L37.69,47v15.16c0,0.22,0.08,0.44,0.21,0.62c4.7,6.14,12.55,8.69,20.25,8.69
		s15.55-2.55,20.25-8.69c0.14-0.18,0.21-0.4,0.21-0.62V51.64l-3.64,4.81L71.32,51.63z M97.98,64.35c-0.92,0-1.62-0.7-1.62-1.62
		c0-0.95,0.76-1.62,1.62-1.62c0.9,0,1.62,0.72,1.62,1.62C99.59,63.66,98.87,64.35,97.98,64.35z M96.64,62.73
		c0,0.75,0.59,1.35,1.34,1.35c0.74,0,1.33-0.6,1.33-1.35c0-0.72-0.59-1.34-1.33-1.34C97.23,61.39,96.64,62.01,96.64,62.73z
		 M97.27,63.63v-1.79c0.11,0,0.84,0,0.87,0c0.35,0.02,0.59,0.18,0.59,0.52c0,0.28-0.16,0.42-0.44,0.45c0.55,0.11,0.3,0.36,0.45,0.82
		h-0.45c-0.03-0.11-0.03-0.4-0.06-0.47c-0.07-0.18-0.3-0.17-0.49-0.17v0.63H97.27z M97.85,62.16h-0.11v0.52h0.18
		c0.21,0,0.35-0.07,0.35-0.28C98.27,62.19,98.06,62.16,97.85,62.16z"/>
</g>
</svg>
