<svg  xmlns="http://www.w3.org/2000/svg" xmlns:xlink="http://www.w3.org/1999/xlink"
	 viewBox="0 0 2000 2000" xml:space="preserve">
<style type="text/css">
	.st0{fill:#64676B;}
	.st1{fill:#BA1F31;}
</style>
<g>
	<path class="st0" d="M65.66,1476.17h171.59c43.8,0,78.21,12.03,100.11,33.93c16.85,16.85,25.75,38.26,25.75,63.29v1.2
		c0,45.97-26.23,70.51-54.63,85.19c44.76,15.4,76.05,40.91,76.05,92.89v1.2c0,68.35-56.31,104.93-141.51,104.93H65.9v-382.64H65.66z
		 M295.73,1584.47c0-30.08-24.07-48.61-67.14-48.61h-96.74v101.8h91.93c43.08,0,72.2-16.85,72.2-51.98v-1.2H295.73z M238.45,1694.45
		H131.84v104.93h111.42c45.48,0,73.88-18.05,73.88-52.46v-1.2C317.15,1713.46,291.4,1694.45,238.45,1694.45z"/>
</g>
<g>
	<path class="st0" d="M1125.11,1476.05h283.73v60.16h-216.59v99.63h192.04v60.64h-192.04v102.28h219.24v60.16h-286.38V1476.05z"/>
</g>
<path id="Logo_1_" class="st1" d="M497.59,233.18H407.1V104.91h380.96v128.51h-90.49c-6.74,0-12.27,5.54-12.27,12.27v385.29
	L509.86,474.08V245.7C510.1,238.72,504.33,233.18,497.59,233.18z M1319.67,245.7v255.82l87.6,115.76l88.08-116.24V245.7
	c0-6.74,5.54-12.27,12.27-12.27h90.49V104.91h-380.96v128.51h90.49C1314.37,233.18,1319.67,238.72,1319.67,245.7z M1909.51,468.54
	H2000V340.03h-324.88L1407.27,693.8l-267.85-353.76H814.77v128.51h90.49c6.74,0,12.27,5.54,12.27,12.27v419.7L290.63,340.27H4.97
	v128.51h90.25c6.74,0,12.27,5.54,12.27,12.27v507.78c0,6.74-5.54,12.27-12.27,12.27H4.97v128.51h375.42v-128.51h-84.95
	c-6.74,0-12.27-5.54-12.27-12.27V568.9l626.91,560.24h182.9V569.38l314.3,415.13l314.3-415.13v418.98c0,6.74-5.53,12.27-12.27,12.27
	h-84.95v128.51H2000v-128.51h-90.49c-6.74,0-12.27-5.54-12.27-12.27V480.58C1897.24,474.08,1902.53,468.54,1909.51,468.54z
	 M1319.43,945.52v216.83c0,4.81-1.93,9.39-5.29,13c-37.54,38.02-149.93,110.22-311.41,110.22c-161.72,0-273.87-72.44-311.41-110.22
	c-3.37-3.37-5.29-8.18-5.29-13V991L510.35,834.1v364.83c0,5.29,1.93,10.59,5.05,14.92c113.11,147.76,302.02,209.13,487.33,209.13
	s374.22-61.37,487.33-209.13c3.37-4.33,5.05-9.63,5.05-14.92V945.76l-87.6,115.76L1319.43,945.52z M1961.01,1251.63
	c-22.14,0-38.99-16.85-38.99-38.99c0-22.86,18.29-38.99,38.99-38.99c21.66,0,38.99,17.33,38.99,38.99
	C2000,1235.03,1982.43,1251.63,1961.01,1251.63z M1928.77,1212.65c0,18.05,14.2,32.49,32.25,32.49c17.81,0,32.01-14.44,32.01-32.49
	c0-17.33-14.2-32.25-32.01-32.25C1942.96,1180.4,1928.77,1195.32,1928.77,1212.65z M1943.93,1234.31v-43.08c2.65,0,20.21,0,20.94,0
	c8.42,0.48,14.2,4.33,14.2,12.51c0,6.74-3.85,10.11-10.59,10.83c13.24,2.65,7.22,8.66,10.83,19.73h-10.83
	c-0.72-2.65-0.72-9.63-1.44-11.31c-1.68-4.33-7.22-4.09-11.79-4.09v15.16h-11.31V1234.31z M1957.89,1198.93h-2.65v12.51h4.33
	c5.05,0,8.42-1.68,8.42-6.74C1967.99,1199.65,1962.94,1198.93,1957.89,1198.93z"/>
<g>
	<path class="st0" d="M587.27,1476.17h171.59c43.8,0,78.21,12.03,100.11,33.93c16.85,16.85,25.75,38.26,25.75,63.29v1.2
		c0,45.97-26.23,70.51-54.63,85.19c44.76,15.4,76.05,40.91,76.05,92.89v1.2c0,68.35-56.31,104.93-141.51,104.93H587.52v-382.64
		H587.27z M817.34,1584.47c0-30.08-24.07-48.61-67.14-48.61h-96.74v101.8h91.93c43.08,0,72.2-16.85,72.2-51.98v-1.2H817.34z
		 M760.07,1694.45H653.46v104.93h111.42c45.48,0,73.88-18.05,73.88-52.46v-1.2C838.76,1713.46,813.01,1694.45,760.07,1694.45z"/>
</g>
<g>
	<path class="st0" d="M1627.23,1476.17h170.62c48.13,0,85.91,14.2,110.46,38.26c20.21,20.7,31.77,49.09,31.77,82.54v0.96
		c0,62.81-37.78,100.59-90.73,116l103.24,144.87h-79.9l-94.1-133.32h-84.23v133.32h-67.14L1627.23,1476.17L1627.23,1476.17z
		 M1793.04,1665.81c48.13,0,78.69-25.03,78.69-64.01v-0.96c0-40.91-29.6-63.53-79.18-63.53h-97.95v128.51
		C1694.61,1665.81,1793.04,1665.81,1793.04,1665.81z"/>
</g>
</svg>
